<!DOCTYPE svg PUBLIC "-//W3C//DTD SVG 1.1//EN" "http://www.w3.org/Graphics/SVG/1.1/DTD/svg11.dtd">

<!-- Uploaded to: SVG Repo, www.svgrepo.com, Transformed by: SVG Repo Mixer Tools -->
<svg fill="#000000" version="1.1" id="Capa_1" xmlns="http://www.w3.org/2000/svg" xmlns:xlink="http://www.w3.org/1999/xlink" width="81px" height="81px" viewBox="0 0 863.301 863.301" xml:space="preserve" transform="matrix(-1, 0, 0, 1, 0, 0)rotate(90)" stroke="#000000" stroke-width="0.00863301">

<g id="SVGRepo_bgCarrier" stroke-width="0"/>

<g id="SVGRepo_tracerCarrier" stroke-linecap="round" stroke-linejoin="round" stroke="#CCCCCC" stroke-width="84.603498"> <g> <g> <path d="M210.9,639.601C251.5,541,319.4,457.5,407.3,398.101c40.2-27.2,83.5-48.7,128.799-64.101v143.4L863.301,248L536.1,18.5 v138.3c-79.4,20.1-155.2,54-224,100.5c-115.7,78.2-205,188-258.4,317.6C18.1,661.201,0.1,752,0,844.701l170,0.1 C170.1,774.401,183.8,705.3,210.9,639.601z"/> </g> </g> </g>

<g id="SVGRepo_iconCarrier"> <g> <g> <path d="M210.9,639.601C251.5,541,319.4,457.5,407.3,398.101c40.2-27.2,83.5-48.7,128.799-64.101v143.4L863.301,248L536.1,18.5 v138.3c-79.4,20.1-155.2,54-224,100.5c-115.7,78.2-205,188-258.4,317.6C18.1,661.201,0.1,752,0,844.701l170,0.1 C170.1,774.401,183.8,705.3,210.9,639.601z"/> </g> </g> </g>

</svg>